# MagicaVoxel @ Ephtracy

# group
o 

# material
mtllib PlaceholderCorner.mtl
usemtl palette

# normals
vn -1 0 0
vn 1 0 0
vn 0 0 1
vn 0 0 -1
vn 0 -1 0
vn 0 1 0

# texcoords
vt 0.947266 0.5
vt 0.951172 0.5

# verts
v -0.1 0 1.5
v -0.1 0 -1.5
v -0.1 0.1 1.5
v -0.1 0.1 1.3
v -0.1 0.1 0.2
v -0.1 0.1 0.1
v -0.1 0.1 -0.1
v -0.1 0.1 -0.2
v -0.1 0.1 -1.3
v -0.1 0.1 -1.5
v -0.1 0.2 1.5
v -0.1 0.2 1.3
v -0.1 0.2 0.2
v -0.1 0.2 0.1
v -0.1 0.2 -0.1
v -0.1 0.2 -0.2
v -0.1 0.2 -1.3
v -0.1 0.2 -1.5
v 0 0 1.3
v 0 0 0.2
v 0 0 0.1
v 0 0 -0.1
v 0 0 -0.2
v 0 0 -1.3
v 0 0.1 1.3
v 0 0.1 0.2
v 0 0.1 0.1
v 0 0.1 -0.1
v 0 0.1 -0.2
v 0 0.1 -1.3
v 0.1 0 1.5
v 0.1 0 1.3
v 0.1 0 0.2
v 0.1 0 0.1
v 0.1 0 -0.1
v 0.1 0 -0.2
v 0.1 0 -1.3
v 0.1 0 -1.5
v 0.1 0.2 1.5
v 0.1 0.2 1.3
v 0.1 0.2 0.2
v 0.1 0.2 0.1
v 0.1 0.2 -0.1
v 0.1 0.2 -0.2
v 0.1 0.2 -1.3
v 0.1 0.2 -1.5
v -0.1 0 1.5
v -0.1 0.1 1.5
v -0.1 0.2 1.5
v 0 0 1.5
v 0 0.1 1.5
v 0.1 0 1.5
v 0.1 0.2 1.5
v -0.1 0.1 0.2
v -0.1 0.2 0.2
v 0 0 0.2
v 0 0.1 0.2
v 0.1 0 0.2
v 0.1 0.2 0.2
v -0.1 0.1 -0.1
v -0.1 0.2 -0.1
v 0 0 -0.1
v 0 0.1 -0.1
v 0.1 0 -0.1
v 0.1 0.2 -0.1
v -0.1 0.1 -1.3
v -0.1 0.2 -1.3
v 0 0 -1.3
v 0 0.1 -1.3
v 0.1 0 -1.3
v 0.1 0.2 -1.3
v -0.1 0.1 1.3
v -0.1 0.2 1.3
v 0 0 1.3
v 0 0.1 1.3
v 0.1 0 1.3
v 0.1 0.2 1.3
v -0.1 0.1 0.1
v -0.1 0.2 0.1
v 0 0 0.1
v 0 0.1 0.1
v 0.1 0 0.1
v 0.1 0.2 0.1
v -0.1 0.1 -0.2
v -0.1 0.2 -0.2
v 0 0 -0.2
v 0 0.1 -0.2
v 0.1 0 -0.2
v 0.1 0.2 -0.2
v -0.1 0 -1.5
v -0.1 0.1 -1.5
v -0.1 0.2 -1.5
v 0 0 -1.5
v 0 0.1 -1.5
v 0.1 0 -1.5
v 0.1 0.2 -1.5
v -0.1 0 1.5
v 0 0 1.5
v 0.1 0 1.5
v 0 0 1.3
v 0.1 0 1.3
v 0 0 0.2
v 0.1 0 0.2
v 0 0 0.1
v 0.1 0 0.1
v 0 0 -0.1
v 0.1 0 -0.1
v 0 0 -0.2
v 0.1 0 -0.2
v 0 0 -1.3
v 0.1 0 -1.3
v -0.1 0 -1.5
v 0 0 -1.5
v 0.1 0 -1.5
v -0.1 0.1 1.3
v 0 0.1 1.3
v -0.1 0.1 0.2
v 0 0.1 0.2
v -0.1 0.1 0.1
v 0 0.1 0.1
v -0.1 0.1 -0.1
v 0 0.1 -0.1
v -0.1 0.1 -0.2
v 0 0.1 -0.2
v -0.1 0.1 -1.3
v 0 0.1 -1.3
v -0.1 0.2 1.5
v 0.1 0.2 1.5
v -0.1 0.2 1.3
v 0.1 0.2 1.3
v -0.1 0.2 0.2
v 0.1 0.2 0.2
v -0.1 0.2 0.1
v 0.1 0.2 0.1
v -0.1 0.2 -0.1
v 0.1 0.2 -0.1
v -0.1 0.2 -0.2
v 0.1 0.2 -0.2
v -0.1 0.2 -1.3
v 0.1 0.2 -1.3
v -0.1 0.2 -1.5
v 0.1 0.2 -1.5

# faces
f 3/2/1 2/2/1 1/2/1
f 4/2/1 2/2/1 3/2/1
f 5/2/1 2/2/1 4/2/1
f 6/2/1 2/2/1 5/2/1
f 7/2/1 2/2/1 6/2/1
f 8/2/1 2/2/1 7/2/1
f 9/2/1 2/2/1 8/2/1
f 10/2/1 2/2/1 9/2/1
f 11/1/1 4/1/1 3/1/1
f 12/1/1 4/1/1 11/1/1
f 13/1/1 6/1/1 5/1/1
f 14/1/1 6/1/1 13/1/1
f 15/1/1 8/1/1 7/1/1
f 16/1/1 8/1/1 15/1/1
f 17/1/1 10/1/1 9/1/1
f 18/1/1 10/1/1 17/1/1
f 19/2/2 20/2/2 25/2/2
f 25/2/2 20/2/2 26/2/2
f 21/2/2 22/2/2 27/2/2
f 27/2/2 22/2/2 28/2/2
f 23/2/2 24/2/2 29/2/2
f 29/2/2 24/2/2 30/2/2
f 31/1/2 32/1/2 39/1/2
f 39/1/2 32/1/2 40/1/2
f 33/1/2 34/1/2 41/1/2
f 41/1/2 34/1/2 42/1/2
f 35/1/2 36/1/2 43/1/2
f 43/1/2 36/1/2 44/1/2
f 37/1/2 38/1/2 45/1/2
f 45/1/2 38/1/2 46/1/2
f 50/2/3 48/2/3 47/2/3
f 51/1/3 49/1/3 48/1/3
f 51/2/3 48/2/3 50/2/3
f 52/1/3 51/1/3 50/1/3
f 53/1/3 49/1/3 51/1/3
f 53/1/3 51/1/3 52/1/3
f 57/1/3 55/1/3 54/1/3
f 58/1/3 57/1/3 56/1/3
f 59/1/3 55/1/3 57/1/3
f 59/1/3 57/1/3 58/1/3
f 63/1/3 61/1/3 60/1/3
f 64/1/3 63/1/3 62/1/3
f 65/1/3 61/1/3 63/1/3
f 65/1/3 63/1/3 64/1/3
f 69/1/3 67/1/3 66/1/3
f 70/1/3 69/1/3 68/1/3
f 71/1/3 67/1/3 69/1/3
f 71/1/3 69/1/3 70/1/3
f 72/1/4 73/1/4 75/1/4
f 74/1/4 75/1/4 76/1/4
f 75/1/4 73/1/4 77/1/4
f 76/1/4 75/1/4 77/1/4
f 78/1/4 79/1/4 81/1/4
f 80/1/4 81/1/4 82/1/4
f 81/1/4 79/1/4 83/1/4
f 82/1/4 81/1/4 83/1/4
f 84/1/4 85/1/4 87/1/4
f 86/1/4 87/1/4 88/1/4
f 87/1/4 85/1/4 89/1/4
f 88/1/4 87/1/4 89/1/4
f 90/2/4 91/2/4 93/2/4
f 91/1/4 92/1/4 94/1/4
f 93/2/4 91/2/4 94/2/4
f 93/1/4 94/1/4 95/1/4
f 94/1/4 92/1/4 96/1/4
f 95/1/4 94/1/4 96/1/4
f 100/2/5 98/2/5 97/2/5
f 100/1/5 99/1/5 98/1/5
f 101/1/5 99/1/5 100/1/5
f 102/2/5 100/2/5 97/2/5
f 104/2/5 102/2/5 97/2/5
f 104/1/5 103/1/5 102/1/5
f 105/1/5 103/1/5 104/1/5
f 106/2/5 104/2/5 97/2/5
f 108/2/5 106/2/5 97/2/5
f 108/1/5 107/1/5 106/1/5
f 109/1/5 107/1/5 108/1/5
f 110/2/5 108/2/5 97/2/5
f 112/2/5 110/2/5 97/2/5
f 113/1/5 111/1/5 110/1/5
f 113/2/5 110/2/5 112/2/5
f 114/1/5 111/1/5 113/1/5
f 115/2/6 116/2/6 117/2/6
f 117/2/6 116/2/6 118/2/6
f 119/2/6 120/2/6 121/2/6
f 121/2/6 120/2/6 122/2/6
f 123/2/6 124/2/6 125/2/6
f 125/2/6 124/2/6 126/2/6
f 127/1/6 128/1/6 129/1/6
f 129/1/6 128/1/6 130/1/6
f 131/1/6 132/1/6 133/1/6
f 133/1/6 132/1/6 134/1/6
f 135/1/6 136/1/6 137/1/6
f 137/1/6 136/1/6 138/1/6
f 139/1/6 140/1/6 141/1/6
f 141/1/6 140/1/6 142/1/6
